<svg width="652" height="118" viewBox="0 0 652 118" fill="none" xmlns="http://www.w3.org/2000/svg">
<rect x="0.5" y="0.5" width="651" height="117" rx="23.5" stroke="#111111"/>
<g clip-path="url(#clip0_846_626)">
<path d="M30.76 28.84L28.96 27.05L27.55 28.46L29.34 30.25L30.76 28.84ZM28 34.5H25V36.5H28V34.5ZM37 24.55H35V27.5H37V24.55ZM44.45 28.46L43.04 27.05L41.25 28.84L42.66 30.25L44.45 28.46ZM41.24 42.16L43.03 43.96L44.44 42.55L42.64 40.76L41.24 42.16ZM44 34.5V36.5H47V34.5H44ZM36 29.5C32.69 29.5 30 32.19 30 35.5C30 38.81 32.69 41.5 36 41.5C39.31 41.5 42 38.81 42 35.5C42 32.19 39.31 29.5 36 29.5ZM35 46.45H37V43.5H35V46.45ZM27.55 42.54L28.96 43.95L30.75 42.15L29.34 40.74L27.55 42.54Z" fill="#111111"/>
</g>
<path d="M27.008 69.8H33.056V71H25.728V60.44H27.008V69.8ZM38.1281 62.84C38.8855 62.84 39.5521 63.0053 40.1281 63.336C40.7148 63.6667 41.1735 64.1467 41.5041 64.776C41.8348 65.3947 42.0001 66.136 42.0001 67C42.0001 67.864 41.8348 68.6107 41.5041 69.24C41.1735 69.8587 40.7148 70.3333 40.1281 70.664C39.5521 70.9947 38.8855 71.16 38.1281 71.16C37.3815 71.16 36.7148 70.9947 36.1281 70.664C35.5415 70.3333 35.0828 69.8587 34.7521 69.24C34.4215 68.6107 34.2561 67.864 34.2561 67C34.2561 66.136 34.4215 65.3947 34.7521 64.776C35.0828 64.1467 35.5415 63.6667 36.1281 63.336C36.7148 63.0053 37.3815 62.84 38.1281 62.84ZM38.1281 63.944C37.5841 63.944 37.1201 64.0667 36.7361 64.312C36.3521 64.5573 36.0535 64.9093 35.8401 65.368C35.6375 65.816 35.5361 66.36 35.5361 67C35.5361 67.6293 35.6375 68.1733 35.8401 68.632C36.0535 69.0907 36.3521 69.4427 36.7361 69.688C37.1201 69.9333 37.5841 70.056 38.1281 70.056C38.6721 70.056 39.1361 69.9333 39.5201 69.688C39.9041 69.4427 40.1975 69.0907 40.4001 68.632C40.6135 68.1733 40.7201 67.6293 40.7201 67C40.7201 66.36 40.6135 65.816 40.4001 65.368C40.1975 64.9093 39.9041 64.5573 39.5201 64.312C39.1361 64.0667 38.6721 63.944 38.1281 63.944ZM44.4099 71V63H45.4499L45.6259 64.312C45.8499 63.8213 46.1752 63.4533 46.6019 63.208C47.0392 62.9627 47.5672 62.84 48.1859 62.84C48.3245 62.84 48.4739 62.8507 48.6339 62.872C48.8045 62.8933 48.9485 62.936 49.0659 63L48.8419 64.168C48.7245 64.1253 48.5965 64.0933 48.4579 64.072C48.3192 64.0507 48.1219 64.04 47.8659 64.04C47.5352 64.04 47.1992 64.136 46.8579 64.328C46.5272 64.52 46.2499 64.8133 46.0259 65.208C45.8019 65.592 45.6899 66.0827 45.6899 66.68V71H44.4099ZM54.0351 71.16C53.2778 71.16 52.6005 70.9947 52.0031 70.664C51.4165 70.3333 50.9578 69.8587 50.6271 69.24C50.2965 68.6107 50.1311 67.864 50.1311 67C50.1311 66.136 50.2965 65.3947 50.6271 64.776C50.9578 64.1467 51.4111 63.6667 51.9871 63.336C52.5631 63.0053 53.2191 62.84 53.9551 62.84C54.7018 62.84 55.3365 63 55.8591 63.32C56.3925 63.64 56.7978 64.0773 57.0751 64.632C57.3525 65.176 57.4911 65.7893 57.4911 66.472C57.4911 66.6533 57.4858 66.8187 57.4751 66.968C57.4645 67.1173 57.4485 67.2507 57.4271 67.368H50.9631V66.232H56.8671L56.2111 66.36C56.2111 65.592 55.9978 65 55.5711 64.584C55.1551 64.168 54.6058 63.96 53.9231 63.96C53.4005 63.96 52.9471 64.0827 52.5631 64.328C52.1898 64.5627 51.8965 64.9093 51.6831 65.368C51.4805 65.816 51.3791 66.36 51.3791 67C51.3791 67.6293 51.4858 68.1733 51.6991 68.632C51.9125 69.0907 52.2111 69.4427 52.5951 69.688C52.9898 69.9227 53.4591 70.04 54.0031 70.04C54.5898 70.04 55.0645 69.928 55.4271 69.704C55.8005 69.48 56.0991 69.176 56.3231 68.792L57.3311 69.384C57.1285 69.7467 56.8671 70.0613 56.5471 70.328C56.2378 70.5947 55.8698 70.8027 55.4431 70.952C55.0271 71.0907 54.5578 71.16 54.0351 71.16ZM59.9255 71V63H61.0455L61.1255 64.248C61.4135 63.7573 61.7868 63.4 62.2455 63.176C62.7148 62.952 63.1948 62.84 63.6855 62.84C64.2508 62.84 64.7842 62.968 65.2855 63.224C65.7868 63.48 66.1708 63.8747 66.4375 64.408C66.6082 64.0453 66.8482 63.752 67.1575 63.528C67.4668 63.2933 67.8028 63.1227 68.1655 63.016C68.5388 62.8987 68.8908 62.84 69.2215 62.84C69.7335 62.84 70.2188 62.9467 70.6775 63.16C71.1468 63.3733 71.5308 63.704 71.8295 64.152C72.1282 64.6 72.2775 65.176 72.2775 65.88V71H70.9975V66.008C70.9975 65.2827 70.8162 64.76 70.4535 64.44C70.0908 64.12 69.6428 63.96 69.1095 63.96C68.6935 63.96 68.3042 64.0613 67.9415 64.264C67.5788 64.4667 67.2855 64.7653 67.0615 65.16C66.8482 65.5547 66.7415 66.04 66.7415 66.616V71H65.4615V66.008C65.4615 65.2827 65.2802 64.76 64.9175 64.44C64.5548 64.12 64.1068 63.96 63.5735 63.96C63.2215 63.96 62.8588 64.056 62.4855 64.248C62.1228 64.4293 61.8188 64.7227 61.5735 65.128C61.3282 65.5333 61.2055 66.0667 61.2055 66.728V71H59.9255ZM81.2686 61.464C80.9806 61.464 80.746 61.3787 80.5646 61.208C80.394 61.0267 80.3086 60.792 80.3086 60.504C80.3086 60.216 80.394 59.9867 80.5646 59.816C80.746 59.6347 80.9806 59.544 81.2686 59.544C81.5566 59.544 81.786 59.6347 81.9566 59.816C82.138 59.9867 82.2286 60.216 82.2286 60.504C82.2286 60.792 82.138 61.0267 81.9566 61.208C81.786 61.3787 81.5566 61.464 81.2686 61.464ZM81.9086 63V71H80.6286V63H81.9086ZM84.8786 74.36V63H85.9986L86.1106 64.952L85.9346 64.728C86.0733 64.3547 86.2813 64.0293 86.5586 63.752C86.836 63.464 87.172 63.24 87.5666 63.08C87.9613 62.92 88.388 62.84 88.8466 62.84C89.4973 62.84 90.0946 63.0053 90.6386 63.336C91.1933 63.6667 91.636 64.1413 91.9666 64.76C92.2973 65.3787 92.4626 66.1253 92.4626 67C92.4626 67.864 92.292 68.6107 91.9506 69.24C91.62 69.8587 91.1773 70.3333 90.6226 70.664C90.068 70.9947 89.46 71.16 88.7986 71.16C88.1373 71.16 87.556 71 87.0546 70.68C86.564 70.3493 86.212 69.9333 85.9986 69.432L86.1586 69.192V74.36H84.8786ZM88.6706 70.04C89.46 70.04 90.0733 69.7627 90.5106 69.208C90.9586 68.6533 91.1826 67.9173 91.1826 67C91.1826 66.0827 90.964 65.3467 90.5266 64.792C90.1 64.2373 89.4973 63.96 88.7186 63.96C88.2066 63.96 87.7586 64.088 87.3746 64.344C86.9906 64.5893 86.692 64.9413 86.4786 65.4C86.2653 65.848 86.1586 66.3813 86.1586 67C86.1586 67.608 86.26 68.1413 86.4626 68.6C86.676 69.0587 86.9693 69.416 87.3426 69.672C87.7266 69.9173 88.1693 70.04 88.6706 70.04ZM97.7899 71.16C97.0112 71.16 96.2912 70.9947 95.6299 70.664C94.9792 70.3333 94.4779 69.864 94.1259 69.256L95.2139 68.472C95.4485 68.9627 95.7899 69.3467 96.2379 69.624C96.6965 69.9013 97.2459 70.04 97.8859 70.04C98.4512 70.04 98.8939 69.9333 99.2139 69.72C99.5339 69.496 99.6939 69.208 99.6939 68.856C99.6939 68.632 99.6192 68.4293 99.4699 68.248C99.3312 68.056 99.0592 67.9173 98.6539 67.832L96.7339 67.432C95.9552 67.272 95.3952 67.0053 95.0539 66.632C94.7232 66.2587 94.5579 65.7947 94.5579 65.24C94.5579 64.8027 94.6805 64.4027 94.9259 64.04C95.1819 63.6773 95.5392 63.3893 95.9979 63.176C96.4672 62.952 97.0165 62.84 97.6459 62.84C98.4352 62.84 99.1019 62.9947 99.6459 63.304C100.19 63.6133 100.595 64.0507 100.862 64.616L99.7899 65.32C99.6085 64.8507 99.3152 64.5093 98.9099 64.296C98.5045 64.072 98.0832 63.96 97.6459 63.96C97.2619 63.96 96.9312 64.0133 96.6539 64.12C96.3872 64.2267 96.1792 64.376 96.0299 64.568C95.8912 64.7493 95.8219 64.9573 95.8219 65.192C95.8219 65.4267 95.9019 65.6453 96.0619 65.848C96.2219 66.04 96.5205 66.1787 96.9579 66.264L98.9579 66.68C99.7045 66.8293 100.227 67.0747 100.526 67.416C100.825 67.7573 100.974 68.1733 100.974 68.664C100.974 69.1653 100.841 69.608 100.574 69.992C100.307 70.3653 99.9339 70.6533 99.4539 70.856C98.9739 71.0587 98.4192 71.16 97.7899 71.16ZM106.243 71.16C105.731 71.16 105.246 71.064 104.787 70.872C104.339 70.68 103.971 70.3707 103.683 69.944C103.406 69.5067 103.267 68.9413 103.267 68.248V63H104.547V67.912C104.547 68.7227 104.723 69.2827 105.075 69.592C105.427 69.8907 105.923 70.04 106.563 70.04C106.862 70.04 107.155 69.992 107.443 69.896C107.731 69.7893 107.987 69.6293 108.211 69.416C108.446 69.192 108.627 68.9093 108.755 68.568C108.894 68.2267 108.963 67.8213 108.963 67.352V63H110.243V71H109.123L109.043 69.784C108.766 70.264 108.387 70.616 107.907 70.84C107.438 71.0533 106.883 71.16 106.243 71.16ZM28.608 90.16C27.9467 90.16 27.3387 89.9947 26.784 89.664C26.2293 89.3333 25.7867 88.8587 25.456 88.24C25.1253 87.6107 24.96 86.864 24.96 86C24.96 85.1147 25.136 84.3627 25.488 83.744C25.84 83.1253 26.304 82.656 26.88 82.336C27.456 82.0053 28.0747 81.84 28.736 81.84C29.3973 81.84 29.968 82.0107 30.448 82.352C30.9387 82.6933 31.264 83.1467 31.424 83.712L31.264 83.824V78.32H32.544V90H31.424L31.312 88.064L31.488 87.968C31.4133 88.4373 31.232 88.8373 30.944 89.168C30.6667 89.488 30.32 89.7333 29.904 89.904C29.4987 90.0747 29.0667 90.16 28.608 90.16ZM28.736 89.04C29.248 89.04 29.6907 88.912 30.064 88.656C30.448 88.4 30.7413 88.0373 30.944 87.568C31.1573 87.088 31.264 86.528 31.264 85.888C31.264 85.28 31.1573 84.7573 30.944 84.32C30.7413 83.8827 30.4533 83.5467 30.08 83.312C29.7173 83.0773 29.2907 82.96 28.8 82.96C27.9893 82.96 27.36 83.2373 26.912 83.792C26.464 84.3467 26.24 85.0827 26.24 86C26.24 86.9173 26.4587 87.6533 26.896 88.208C27.3333 88.7627 27.9467 89.04 28.736 89.04ZM38.8313 81.84C39.5886 81.84 40.2553 82.0053 40.8313 82.336C41.4179 82.6667 41.8766 83.1467 42.2073 83.776C42.5379 84.3947 42.7033 85.136 42.7033 86C42.7033 86.864 42.5379 87.6107 42.2073 88.24C41.8766 88.8587 41.4179 89.3333 40.8313 89.664C40.2553 89.9947 39.5886 90.16 38.8313 90.16C38.0846 90.16 37.4179 89.9947 36.8313 89.664C36.2446 89.3333 35.7859 88.8587 35.4553 88.24C35.1246 87.6107 34.9593 86.864 34.9593 86C34.9593 85.136 35.1246 84.3947 35.4553 83.776C35.7859 83.1467 36.2446 82.6667 36.8313 82.336C37.4179 82.0053 38.0846 81.84 38.8313 81.84ZM38.8313 82.944C38.2873 82.944 37.8233 83.0667 37.4393 83.312C37.0553 83.5573 36.7566 83.9093 36.5433 84.368C36.3406 84.816 36.2393 85.36 36.2393 86C36.2393 86.6293 36.3406 87.1733 36.5433 87.632C36.7566 88.0907 37.0553 88.4427 37.4393 88.688C37.8233 88.9333 38.2873 89.056 38.8313 89.056C39.3753 89.056 39.8393 88.9333 40.2233 88.688C40.6073 88.4427 40.9006 88.0907 41.1033 87.632C41.3166 87.1733 41.4233 86.6293 41.4233 86C41.4233 85.36 41.3166 84.816 41.1033 84.368C40.9006 83.9093 40.6073 83.5573 40.2233 83.312C39.8393 83.0667 39.3753 82.944 38.8313 82.944ZM46.329 78.32V87.968C46.329 88.3733 46.4037 88.656 46.553 88.816C46.7023 88.9653 46.9423 89.04 47.273 89.04C47.4863 89.04 47.6623 89.024 47.801 88.992C47.9397 88.96 48.1263 88.9013 48.361 88.816L48.153 89.936C47.9823 90.0107 47.7957 90.064 47.593 90.096C47.3903 90.1387 47.1823 90.16 46.969 90.16C46.3183 90.16 45.833 89.984 45.513 89.632C45.2037 89.28 45.049 88.7413 45.049 88.016V78.32H46.329ZM53.3156 81.84C54.073 81.84 54.7396 82.0053 55.3156 82.336C55.9023 82.6667 56.361 83.1467 56.6916 83.776C57.0223 84.3947 57.1876 85.136 57.1876 86C57.1876 86.864 57.0223 87.6107 56.6916 88.24C56.361 88.8587 55.9023 89.3333 55.3156 89.664C54.7396 89.9947 54.073 90.16 53.3156 90.16C52.569 90.16 51.9023 89.9947 51.3156 89.664C50.729 89.3333 50.2703 88.8587 49.9396 88.24C49.609 87.6107 49.4436 86.864 49.4436 86C49.4436 85.136 49.609 84.3947 49.9396 83.776C50.2703 83.1467 50.729 82.6667 51.3156 82.336C51.9023 82.0053 52.569 81.84 53.3156 81.84ZM53.3156 82.944C52.7716 82.944 52.3076 83.0667 51.9236 83.312C51.5396 83.5573 51.241 83.9093 51.0276 84.368C50.825 84.816 50.7236 85.36 50.7236 86C50.7236 86.6293 50.825 87.1733 51.0276 87.632C51.241 88.0907 51.5396 88.4427 51.9236 88.688C52.3076 88.9333 52.7716 89.056 53.3156 89.056C53.8596 89.056 54.3236 88.9333 54.7076 88.688C55.0916 88.4427 55.385 88.0907 55.5876 87.632C55.801 87.1733 55.9076 86.6293 55.9076 86C55.9076 85.36 55.801 84.816 55.5876 84.368C55.385 83.9093 55.0916 83.5573 54.7076 83.312C54.3236 83.0667 53.8596 82.944 53.3156 82.944ZM59.5974 90V82H60.6374L60.8134 83.312C61.0374 82.8213 61.3627 82.4533 61.7894 82.208C62.2267 81.9627 62.7547 81.84 63.3734 81.84C63.512 81.84 63.6614 81.8507 63.8214 81.872C63.992 81.8933 64.136 81.936 64.2534 82L64.0294 83.168C63.912 83.1253 63.784 83.0933 63.6454 83.072C63.5067 83.0507 63.3094 83.04 63.0534 83.04C62.7227 83.04 62.3867 83.136 62.0454 83.328C61.7147 83.52 61.4374 83.8133 61.2134 84.208C60.9894 84.592 60.8774 85.0827 60.8774 85.68V90H59.5974ZM75.8788 84.832C75.8788 84.2347 75.7188 83.776 75.3988 83.456C75.0788 83.1253 74.6254 82.96 74.0388 82.96C73.4841 82.96 73.0148 83.0827 72.6308 83.328C72.2468 83.5627 71.9641 83.9467 71.7828 84.48L70.7428 83.84C70.9561 83.2427 71.3508 82.7627 71.9268 82.4C72.5028 82.0267 73.2174 81.84 74.0708 81.84C74.6468 81.84 75.1694 81.9413 75.6388 82.144C76.1081 82.336 76.4761 82.6347 76.7428 83.04C77.0201 83.4347 77.1588 83.9467 77.1588 84.576V88.448C77.1588 88.832 77.3614 89.024 77.7668 89.024C77.9694 89.024 78.1668 88.9973 78.3588 88.944L78.2948 89.952C78.0814 90.0587 77.8041 90.112 77.4628 90.112C77.1534 90.112 76.8761 90.0533 76.6308 89.936C76.3854 89.8187 76.1934 89.6427 76.0548 89.408C75.9161 89.1627 75.8468 88.8587 75.8468 88.496V88.336L76.1668 88.384C76.0388 88.8 75.8201 89.1413 75.5108 89.408C75.2014 89.664 74.8548 89.856 74.4708 89.984C74.0868 90.1013 73.7081 90.16 73.3348 90.16C72.8654 90.16 72.4281 90.08 72.0228 89.92C71.6174 89.76 71.2921 89.52 71.0468 89.2C70.8121 88.8693 70.6948 88.464 70.6948 87.984C70.6948 87.3867 70.8921 86.896 71.2868 86.512C71.6921 86.1173 72.2521 85.8507 72.9668 85.712L76.1348 85.088V86.144L73.5588 86.672C73.0361 86.7787 72.6468 86.928 72.3908 87.12C72.1348 87.312 72.0068 87.5787 72.0068 87.92C72.0068 88.2507 72.1348 88.5227 72.3908 88.736C72.6574 88.9387 73.0308 89.04 73.5108 89.04C73.8201 89.04 74.1134 89.0027 74.3908 88.928C74.6788 88.8427 74.9348 88.72 75.1588 88.56C75.3828 88.3893 75.5588 88.1813 75.6868 87.936C75.8148 87.68 75.8788 87.3813 75.8788 87.04V84.832ZM80.2693 90V82H81.3893L81.4693 83.248C81.7573 82.7573 82.1306 82.4 82.5893 82.176C83.0586 81.952 83.5386 81.84 84.0293 81.84C84.5946 81.84 85.1279 81.968 85.6293 82.224C86.1306 82.48 86.5146 82.8747 86.7812 83.408C86.9519 83.0453 87.1919 82.752 87.5013 82.528C87.8106 82.2933 88.1466 82.1227 88.5093 82.016C88.8826 81.8987 89.2346 81.84 89.5653 81.84C90.0773 81.84 90.5626 81.9467 91.0213 82.16C91.4906 82.3733 91.8746 82.704 92.1733 83.152C92.4719 83.6 92.6213 84.176 92.6213 84.88V90H91.3413V85.008C91.3413 84.2827 91.1599 83.76 90.7973 83.44C90.4346 83.12 89.9866 82.96 89.4533 82.96C89.0373 82.96 88.6479 83.0613 88.2853 83.264C87.9226 83.4667 87.6293 83.7653 87.4053 84.16C87.1919 84.5547 87.0853 85.04 87.0853 85.616V90H85.8053V85.008C85.8053 84.2827 85.6239 83.76 85.2613 83.44C84.8986 83.12 84.4506 82.96 83.9173 82.96C83.5653 82.96 83.2026 83.056 82.8293 83.248C82.4666 83.4293 82.1626 83.7227 81.9173 84.128C81.6719 84.5333 81.5493 85.0667 81.5493 85.728V90H80.2693ZM98.8633 90.16C98.1059 90.16 97.4286 89.9947 96.8313 89.664C96.2446 89.3333 95.7859 88.8587 95.4553 88.24C95.1246 87.6107 94.9593 86.864 94.9593 86C94.9593 85.136 95.1246 84.3947 95.4553 83.776C95.7859 83.1467 96.2393 82.6667 96.8153 82.336C97.3913 82.0053 98.0473 81.84 98.7833 81.84C99.5299 81.84 100.165 82 100.687 82.32C101.221 82.64 101.626 83.0773 101.903 83.632C102.181 84.176 102.319 84.7893 102.319 85.472C102.319 85.6533 102.314 85.8187 102.303 85.968C102.293 86.1173 102.277 86.2507 102.255 86.368H95.7913V85.232H101.695L101.039 85.36C101.039 84.592 100.826 84 100.399 83.584C99.9833 83.168 99.4339 82.96 98.7513 82.96C98.2286 82.96 97.7753 83.0827 97.3913 83.328C97.0179 83.5627 96.7246 83.9093 96.5113 84.368C96.3086 84.816 96.2073 85.36 96.2073 86C96.2073 86.6293 96.3139 87.1733 96.5273 87.632C96.7406 88.0907 97.0393 88.4427 97.4233 88.688C97.8179 88.9227 98.2873 89.04 98.8313 89.04C99.4179 89.04 99.8926 88.928 100.255 88.704C100.629 88.48 100.927 88.176 101.151 87.792L102.159 88.384C101.957 88.7467 101.695 89.0613 101.375 89.328C101.066 89.5947 100.698 89.8027 100.271 89.952C99.8553 90.0907 99.3859 90.16 98.8633 90.16ZM106.407 79.728V87.792C106.407 88.1867 106.519 88.48 106.743 88.672C106.967 88.864 107.255 88.96 107.607 88.96C107.917 88.96 108.183 88.9067 108.407 88.8C108.631 88.6933 108.834 88.5493 109.015 88.368L109.463 89.44C109.218 89.664 108.925 89.84 108.583 89.968C108.253 90.096 107.869 90.16 107.431 90.16C107.026 90.16 106.647 90.0907 106.295 89.952C105.943 89.8027 105.661 89.5733 105.447 89.264C105.245 88.944 105.138 88.528 105.127 88.016V80.08L106.407 79.728ZM109.319 82V83.104H103.527V82H109.319Z" fill="#111111"/>
<g clip-path="url(#clip1_846_626)">
<path d="M207 41.27L213.18 45L211.54 37.97L217 33.24L209.81 32.63L207 26L204.19 32.63L197 33.24L202.46 37.97L200.82 45L207 41.27Z" fill="#111111"/>
</g>
<path d="M198.008 69.8H204.056V71H196.728V60.44H198.008V69.8ZM209.128 62.84C209.885 62.84 210.552 63.0053 211.128 63.336C211.715 63.6667 212.173 64.1467 212.504 64.776C212.835 65.3947 213 66.136 213 67C213 67.864 212.835 68.6107 212.504 69.24C212.173 69.8587 211.715 70.3333 211.128 70.664C210.552 70.9947 209.885 71.16 209.128 71.16C208.381 71.16 207.715 70.9947 207.128 70.664C206.541 70.3333 206.083 69.8587 205.752 69.24C205.421 68.6107 205.256 67.864 205.256 67C205.256 66.136 205.421 65.3947 205.752 64.776C206.083 64.1467 206.541 63.6667 207.128 63.336C207.715 63.0053 208.381 62.84 209.128 62.84ZM209.128 63.944C208.584 63.944 208.12 64.0667 207.736 64.312C207.352 64.5573 207.053 64.9093 206.84 65.368C206.637 65.816 206.536 66.36 206.536 67C206.536 67.6293 206.637 68.1733 206.84 68.632C207.053 69.0907 207.352 69.4427 207.736 69.688C208.12 69.9333 208.584 70.056 209.128 70.056C209.672 70.056 210.136 69.9333 210.52 69.688C210.904 69.4427 211.197 69.0907 211.4 68.632C211.613 68.1733 211.72 67.6293 211.72 67C211.72 66.36 211.613 65.816 211.4 65.368C211.197 64.9093 210.904 64.5573 210.52 64.312C210.136 64.0667 209.672 63.944 209.128 63.944ZM215.41 71V63H216.45L216.626 64.312C216.85 63.8213 217.175 63.4533 217.602 63.208C218.039 62.9627 218.567 62.84 219.186 62.84C219.325 62.84 219.474 62.8507 219.634 62.872C219.805 62.8933 219.949 62.936 220.066 63L219.842 64.168C219.725 64.1253 219.597 64.0933 219.458 64.072C219.319 64.0507 219.122 64.04 218.866 64.04C218.535 64.04 218.199 64.136 217.858 64.328C217.527 64.52 217.25 64.8133 217.026 65.208C216.802 65.592 216.69 66.0827 216.69 66.68V71H215.41ZM225.035 71.16C224.278 71.16 223.6 70.9947 223.003 70.664C222.416 70.3333 221.958 69.8587 221.627 69.24C221.296 68.6107 221.131 67.864 221.131 67C221.131 66.136 221.296 65.3947 221.627 64.776C221.958 64.1467 222.411 63.6667 222.987 63.336C223.563 63.0053 224.219 62.84 224.955 62.84C225.702 62.84 226.336 63 226.859 63.32C227.392 63.64 227.798 64.0773 228.075 64.632C228.352 65.176 228.491 65.7893 228.491 66.472C228.491 66.6533 228.486 66.8187 228.475 66.968C228.464 67.1173 228.448 67.2507 228.427 67.368H221.963V66.232H227.867L227.211 66.36C227.211 65.592 226.998 65 226.571 64.584C226.155 64.168 225.606 63.96 224.923 63.96C224.4 63.96 223.947 64.0827 223.563 64.328C223.19 64.5627 222.896 64.9093 222.683 65.368C222.48 65.816 222.379 66.36 222.379 67C222.379 67.6293 222.486 68.1733 222.699 68.632C222.912 69.0907 223.211 69.4427 223.595 69.688C223.99 69.9227 224.459 70.04 225.003 70.04C225.59 70.04 226.064 69.928 226.427 69.704C226.8 69.48 227.099 69.176 227.323 68.792L228.331 69.384C228.128 69.7467 227.867 70.0613 227.547 70.328C227.238 70.5947 226.87 70.8027 226.443 70.952C226.027 71.0907 225.558 71.16 225.035 71.16ZM230.926 71V63H232.046L232.126 64.248C232.414 63.7573 232.787 63.4 233.246 63.176C233.715 62.952 234.195 62.84 234.686 62.84C235.251 62.84 235.784 62.968 236.286 63.224C236.787 63.48 237.171 63.8747 237.438 64.408C237.608 64.0453 237.848 63.752 238.158 63.528C238.467 63.2933 238.803 63.1227 239.166 63.016C239.539 62.8987 239.891 62.84 240.222 62.84C240.734 62.84 241.219 62.9467 241.678 63.16C242.147 63.3733 242.531 63.704 242.83 64.152C243.128 64.6 243.278 65.176 243.278 65.88V71H241.998V66.008C241.998 65.2827 241.816 64.76 241.454 64.44C241.091 64.12 240.643 63.96 240.11 63.96C239.694 63.96 239.304 64.0613 238.942 64.264C238.579 64.4667 238.286 64.7653 238.062 65.16C237.848 65.5547 237.742 66.04 237.742 66.616V71H236.462V66.008C236.462 65.2827 236.28 64.76 235.918 64.44C235.555 64.12 235.107 63.96 234.574 63.96C234.222 63.96 233.859 64.056 233.486 64.248C233.123 64.4293 232.819 64.7227 232.574 65.128C232.328 65.5333 232.206 66.0667 232.206 66.728V71H230.926ZM252.269 61.464C251.981 61.464 251.746 61.3787 251.565 61.208C251.394 61.0267 251.309 60.792 251.309 60.504C251.309 60.216 251.394 59.9867 251.565 59.816C251.746 59.6347 251.981 59.544 252.269 59.544C252.557 59.544 252.786 59.6347 252.957 59.816C253.138 59.9867 253.229 60.216 253.229 60.504C253.229 60.792 253.138 61.0267 252.957 61.208C252.786 61.3787 252.557 61.464 252.269 61.464ZM252.909 63V71H251.629V63H252.909ZM255.879 74.36V63H256.999L257.111 64.952L256.935 64.728C257.073 64.3547 257.281 64.0293 257.559 63.752C257.836 63.464 258.172 63.24 258.567 63.08C258.961 62.92 259.388 62.84 259.847 62.84C260.497 62.84 261.095 63.0053 261.639 63.336C262.193 63.6667 262.636 64.1413 262.967 64.76C263.297 65.3787 263.463 66.1253 263.463 67C263.463 67.864 263.292 68.6107 262.951 69.24C262.62 69.8587 262.177 70.3333 261.623 70.664C261.068 70.9947 260.46 71.16 259.799 71.16C259.137 71.16 258.556 71 258.055 70.68C257.564 70.3493 257.212 69.9333 256.999 69.432L257.159 69.192V74.36H255.879ZM259.671 70.04C260.46 70.04 261.073 69.7627 261.511 69.208C261.959 68.6533 262.183 67.9173 262.183 67C262.183 66.0827 261.964 65.3467 261.527 64.792C261.1 64.2373 260.497 63.96 259.719 63.96C259.207 63.96 258.759 64.088 258.375 64.344C257.991 64.5893 257.692 64.9413 257.479 65.4C257.265 65.848 257.159 66.3813 257.159 67C257.159 67.608 257.26 68.1413 257.463 68.6C257.676 69.0587 257.969 69.416 258.343 69.672C258.727 69.9173 259.169 70.04 259.671 70.04ZM268.79 71.16C268.011 71.16 267.291 70.9947 266.63 70.664C265.979 70.3333 265.478 69.864 265.126 69.256L266.214 68.472C266.449 68.9627 266.79 69.3467 267.238 69.624C267.697 69.9013 268.246 70.04 268.886 70.04C269.451 70.04 269.894 69.9333 270.214 69.72C270.534 69.496 270.694 69.208 270.694 68.856C270.694 68.632 270.619 68.4293 270.47 68.248C270.331 68.056 270.059 67.9173 269.654 67.832L267.734 67.432C266.955 67.272 266.395 67.0053 266.054 66.632C265.723 66.2587 265.558 65.7947 265.558 65.24C265.558 64.8027 265.681 64.4027 265.926 64.04C266.182 63.6773 266.539 63.3893 266.998 63.176C267.467 62.952 268.017 62.84 268.646 62.84C269.435 62.84 270.102 62.9947 270.646 63.304C271.19 63.6133 271.595 64.0507 271.862 64.616L270.79 65.32C270.609 64.8507 270.315 64.5093 269.91 64.296C269.505 64.072 269.083 63.96 268.646 63.96C268.262 63.96 267.931 64.0133 267.654 64.12C267.387 64.2267 267.179 64.376 267.03 64.568C266.891 64.7493 266.822 64.9573 266.822 65.192C266.822 65.4267 266.902 65.6453 267.062 65.848C267.222 66.04 267.521 66.1787 267.958 66.264L269.958 66.68C270.705 66.8293 271.227 67.0747 271.526 67.416C271.825 67.7573 271.974 68.1733 271.974 68.664C271.974 69.1653 271.841 69.608 271.574 69.992C271.307 70.3653 270.934 70.6533 270.454 70.856C269.974 71.0587 269.419 71.16 268.79 71.16ZM277.243 71.16C276.731 71.16 276.246 71.064 275.787 70.872C275.339 70.68 274.971 70.3707 274.683 69.944C274.406 69.5067 274.267 68.9413 274.267 68.248V63H275.547V67.912C275.547 68.7227 275.723 69.2827 276.075 69.592C276.427 69.8907 276.923 70.04 277.563 70.04C277.862 70.04 278.155 69.992 278.443 69.896C278.731 69.7893 278.987 69.6293 279.211 69.416C279.446 69.192 279.627 68.9093 279.755 68.568C279.894 68.2267 279.963 67.8213 279.963 67.352V63H281.243V71H280.123L280.043 69.784C279.766 70.264 279.387 70.616 278.907 70.84C278.438 71.0533 277.883 71.16 277.243 71.16ZM199.608 90.16C198.947 90.16 198.339 89.9947 197.784 89.664C197.229 89.3333 196.787 88.8587 196.456 88.24C196.125 87.6107 195.96 86.864 195.96 86C195.96 85.1147 196.136 84.3627 196.488 83.744C196.84 83.1253 197.304 82.656 197.88 82.336C198.456 82.0053 199.075 81.84 199.736 81.84C200.397 81.84 200.968 82.0107 201.448 82.352C201.939 82.6933 202.264 83.1467 202.424 83.712L202.264 83.824V78.32H203.544V90H202.424L202.312 88.064L202.488 87.968C202.413 88.4373 202.232 88.8373 201.944 89.168C201.667 89.488 201.32 89.7333 200.904 89.904C200.499 90.0747 200.067 90.16 199.608 90.16ZM199.736 89.04C200.248 89.04 200.691 88.912 201.064 88.656C201.448 88.4 201.741 88.0373 201.944 87.568C202.157 87.088 202.264 86.528 202.264 85.888C202.264 85.28 202.157 84.7573 201.944 84.32C201.741 83.8827 201.453 83.5467 201.08 83.312C200.717 83.0773 200.291 82.96 199.8 82.96C198.989 82.96 198.36 83.2373 197.912 83.792C197.464 84.3467 197.24 85.0827 197.24 86C197.24 86.9173 197.459 87.6533 197.896 88.208C198.333 88.7627 198.947 89.04 199.736 89.04ZM209.831 81.84C210.589 81.84 211.255 82.0053 211.831 82.336C212.418 82.6667 212.877 83.1467 213.207 83.776C213.538 84.3947 213.703 85.136 213.703 86C213.703 86.864 213.538 87.6107 213.207 88.24C212.877 88.8587 212.418 89.3333 211.831 89.664C211.255 89.9947 210.589 90.16 209.831 90.16C209.085 90.16 208.418 89.9947 207.831 89.664C207.245 89.3333 206.786 88.8587 206.455 88.24C206.125 87.6107 205.959 86.864 205.959 86C205.959 85.136 206.125 84.3947 206.455 83.776C206.786 83.1467 207.245 82.6667 207.831 82.336C208.418 82.0053 209.085 81.84 209.831 81.84ZM209.831 82.944C209.287 82.944 208.823 83.0667 208.439 83.312C208.055 83.5573 207.757 83.9093 207.543 84.368C207.341 84.816 207.239 85.36 207.239 86C207.239 86.6293 207.341 87.1733 207.543 87.632C207.757 88.0907 208.055 88.4427 208.439 88.688C208.823 88.9333 209.287 89.056 209.831 89.056C210.375 89.056 210.839 88.9333 211.223 88.688C211.607 88.4427 211.901 88.0907 212.103 87.632C212.317 87.1733 212.423 86.6293 212.423 86C212.423 85.36 212.317 84.816 212.103 84.368C211.901 83.9093 211.607 83.5573 211.223 83.312C210.839 83.0667 210.375 82.944 209.831 82.944ZM217.329 78.32V87.968C217.329 88.3733 217.404 88.656 217.553 88.816C217.702 88.9653 217.942 89.04 218.273 89.04C218.486 89.04 218.662 89.024 218.801 88.992C218.94 88.96 219.126 88.9013 219.361 88.816L219.153 89.936C218.982 90.0107 218.796 90.064 218.593 90.096C218.39 90.1387 218.182 90.16 217.969 90.16C217.318 90.16 216.833 89.984 216.513 89.632C216.204 89.28 216.049 88.7413 216.049 88.016V78.32H217.329ZM224.316 81.84C225.073 81.84 225.74 82.0053 226.316 82.336C226.902 82.6667 227.361 83.1467 227.692 83.776C228.022 84.3947 228.188 85.136 228.188 86C228.188 86.864 228.022 87.6107 227.692 88.24C227.361 88.8587 226.902 89.3333 226.316 89.664C225.74 89.9947 225.073 90.16 224.316 90.16C223.569 90.16 222.902 89.9947 222.316 89.664C221.729 89.3333 221.27 88.8587 220.94 88.24C220.609 87.6107 220.444 86.864 220.444 86C220.444 85.136 220.609 84.3947 220.94 83.776C221.27 83.1467 221.729 82.6667 222.316 82.336C222.902 82.0053 223.569 81.84 224.316 81.84ZM224.316 82.944C223.772 82.944 223.308 83.0667 222.924 83.312C222.54 83.5573 222.241 83.9093 222.028 84.368C221.825 84.816 221.724 85.36 221.724 86C221.724 86.6293 221.825 87.1733 222.028 87.632C222.241 88.0907 222.54 88.4427 222.924 88.688C223.308 88.9333 223.772 89.056 224.316 89.056C224.86 89.056 225.324 88.9333 225.708 88.688C226.092 88.4427 226.385 88.0907 226.588 87.632C226.801 87.1733 226.908 86.6293 226.908 86C226.908 85.36 226.801 84.816 226.588 84.368C226.385 83.9093 226.092 83.5573 225.708 83.312C225.324 83.0667 224.86 82.944 224.316 82.944ZM230.597 90V82H231.637L231.813 83.312C232.037 82.8213 232.363 82.4533 232.789 82.208C233.227 81.9627 233.755 81.84 234.373 81.84C234.512 81.84 234.661 81.8507 234.821 81.872C234.992 81.8933 235.136 81.936 235.253 82L235.029 83.168C234.912 83.1253 234.784 83.0933 234.645 83.072C234.507 83.0507 234.309 83.04 234.053 83.04C233.723 83.04 233.387 83.136 233.045 83.328C232.715 83.52 232.437 83.8133 232.213 84.208C231.989 84.592 231.877 85.0827 231.877 85.68V90H230.597ZM246.879 84.832C246.879 84.2347 246.719 83.776 246.399 83.456C246.079 83.1253 245.625 82.96 245.039 82.96C244.484 82.96 244.015 83.0827 243.631 83.328C243.247 83.5627 242.964 83.9467 242.783 84.48L241.743 83.84C241.956 83.2427 242.351 82.7627 242.927 82.4C243.503 82.0267 244.217 81.84 245.071 81.84C245.647 81.84 246.169 81.9413 246.639 82.144C247.108 82.336 247.476 82.6347 247.743 83.04C248.02 83.4347 248.159 83.9467 248.159 84.576V88.448C248.159 88.832 248.361 89.024 248.767 89.024C248.969 89.024 249.167 88.9973 249.359 88.944L249.295 89.952C249.081 90.0587 248.804 90.112 248.463 90.112C248.153 90.112 247.876 90.0533 247.631 89.936C247.385 89.8187 247.193 89.6427 247.055 89.408C246.916 89.1627 246.847 88.8587 246.847 88.496V88.336L247.167 88.384C247.039 88.8 246.82 89.1413 246.511 89.408C246.201 89.664 245.855 89.856 245.471 89.984C245.087 90.1013 244.708 90.16 244.335 90.16C243.865 90.16 243.428 90.08 243.023 89.92C242.617 89.76 242.292 89.52 242.047 89.2C241.812 88.8693 241.695 88.464 241.695 87.984C241.695 87.3867 241.892 86.896 242.287 86.512C242.692 86.1173 243.252 85.8507 243.967 85.712L247.135 85.088V86.144L244.559 86.672C244.036 86.7787 243.647 86.928 243.391 87.12C243.135 87.312 243.007 87.5787 243.007 87.92C243.007 88.2507 243.135 88.5227 243.391 88.736C243.657 88.9387 244.031 89.04 244.511 89.04C244.82 89.04 245.113 89.0027 245.391 88.928C245.679 88.8427 245.935 88.72 246.159 88.56C246.383 88.3893 246.559 88.1813 246.687 87.936C246.815 87.68 246.879 87.3813 246.879 87.04V84.832ZM251.269 90V82H252.389L252.469 83.248C252.757 82.7573 253.131 82.4 253.589 82.176C254.059 81.952 254.539 81.84 255.029 81.84C255.595 81.84 256.128 81.968 256.629 82.224C257.131 82.48 257.515 82.8747 257.781 83.408C257.952 83.0453 258.192 82.752 258.501 82.528C258.811 82.2933 259.147 82.1227 259.509 82.016C259.883 81.8987 260.235 81.84 260.565 81.84C261.077 81.84 261.563 81.9467 262.021 82.16C262.491 82.3733 262.875 82.704 263.173 83.152C263.472 83.6 263.621 84.176 263.621 84.88V90H262.341V85.008C262.341 84.2827 262.16 83.76 261.797 83.44C261.435 83.12 260.987 82.96 260.453 82.96C260.037 82.96 259.648 83.0613 259.285 83.264C258.923 83.4667 258.629 83.7653 258.405 84.16C258.192 84.5547 258.085 85.04 258.085 85.616V90H256.805V85.008C256.805 84.2827 256.624 83.76 256.261 83.44C255.899 83.12 255.451 82.96 254.917 82.96C254.565 82.96 254.203 83.056 253.829 83.248C253.467 83.4293 253.163 83.7227 252.917 84.128C252.672 84.5333 252.549 85.0667 252.549 85.728V90H251.269ZM269.863 90.16C269.106 90.16 268.429 89.9947 267.831 89.664C267.245 89.3333 266.786 88.8587 266.455 88.24C266.125 87.6107 265.959 86.864 265.959 86C265.959 85.136 266.125 84.3947 266.455 83.776C266.786 83.1467 267.239 82.6667 267.815 82.336C268.391 82.0053 269.047 81.84 269.783 81.84C270.53 81.84 271.165 82 271.687 82.32C272.221 82.64 272.626 83.0773 272.903 83.632C273.181 84.176 273.319 84.7893 273.319 85.472C273.319 85.6533 273.314 85.8187 273.303 85.968C273.293 86.1173 273.277 86.2507 273.255 86.368H266.791V85.232H272.695L272.039 85.36C272.039 84.592 271.826 84 271.399 83.584C270.983 83.168 270.434 82.96 269.751 82.96C269.229 82.96 268.775 83.0827 268.391 83.328C268.018 83.5627 267.725 83.9093 267.511 84.368C267.309 84.816 267.207 85.36 267.207 86C267.207 86.6293 267.314 87.1733 267.527 87.632C267.741 88.0907 268.039 88.4427 268.423 88.688C268.818 88.9227 269.287 89.04 269.831 89.04C270.418 89.04 270.893 88.928 271.255 88.704C271.629 88.48 271.927 88.176 272.151 87.792L273.159 88.384C272.957 88.7467 272.695 89.0613 272.375 89.328C272.066 89.5947 271.698 89.8027 271.271 89.952C270.855 90.0907 270.386 90.16 269.863 90.16ZM277.407 79.728V87.792C277.407 88.1867 277.519 88.48 277.743 88.672C277.967 88.864 278.255 88.96 278.607 88.96C278.917 88.96 279.183 88.9067 279.407 88.8C279.631 88.6933 279.834 88.5493 280.015 88.368L280.463 89.44C280.218 89.664 279.925 89.84 279.583 89.968C279.253 90.096 278.869 90.16 278.431 90.16C278.026 90.16 277.647 90.0907 277.295 89.952C276.943 89.8027 276.661 89.5733 276.447 89.264C276.245 88.944 276.138 88.528 276.127 88.016V80.08L277.407 79.728ZM280.319 82V83.104H274.527V82H280.319Z" fill="#111111"/>
<g clip-path="url(#clip2_846_626)">
<path d="M378 28.5C373 28.5 368.73 31.61 367 36C368.73 40.39 373 43.5 378 43.5C383 43.5 387.27 40.39 389 36C387.27 31.61 383 28.5 378 28.5ZM378 41C375.24 41 373 38.76 373 36C373 33.24 375.24 31 378 31C380.76 31 383 33.24 383 36C383 38.76 380.76 41 378 41ZM378 33C376.34 33 375 34.34 375 36C375 37.66 376.34 39 378 39C379.66 39 381 37.66 381 36C381 34.34 379.66 33 378 33Z" fill="#111111"/>
</g>
<path d="M369.008 69.8H375.056V71H367.728V60.44H369.008V69.8ZM380.128 62.84C380.885 62.84 381.552 63.0053 382.128 63.336C382.715 63.6667 383.173 64.1467 383.504 64.776C383.835 65.3947 384 66.136 384 67C384 67.864 383.835 68.6107 383.504 69.24C383.173 69.8587 382.715 70.3333 382.128 70.664C381.552 70.9947 380.885 71.16 380.128 71.16C379.381 71.16 378.715 70.9947 378.128 70.664C377.541 70.3333 377.083 69.8587 376.752 69.24C376.421 68.6107 376.256 67.864 376.256 67C376.256 66.136 376.421 65.3947 376.752 64.776C377.083 64.1467 377.541 63.6667 378.128 63.336C378.715 63.0053 379.381 62.84 380.128 62.84ZM380.128 63.944C379.584 63.944 379.12 64.0667 378.736 64.312C378.352 64.5573 378.053 64.9093 377.84 65.368C377.637 65.816 377.536 66.36 377.536 67C377.536 67.6293 377.637 68.1733 377.84 68.632C378.053 69.0907 378.352 69.4427 378.736 69.688C379.12 69.9333 379.584 70.056 380.128 70.056C380.672 70.056 381.136 69.9333 381.52 69.688C381.904 69.4427 382.197 69.0907 382.4 68.632C382.613 68.1733 382.72 67.6293 382.72 67C382.72 66.36 382.613 65.816 382.4 65.368C382.197 64.9093 381.904 64.5573 381.52 64.312C381.136 64.0667 380.672 63.944 380.128 63.944ZM386.41 71V63H387.45L387.626 64.312C387.85 63.8213 388.175 63.4533 388.602 63.208C389.039 62.9627 389.567 62.84 390.186 62.84C390.325 62.84 390.474 62.8507 390.634 62.872C390.805 62.8933 390.949 62.936 391.066 63L390.842 64.168C390.725 64.1253 390.597 64.0933 390.458 64.072C390.319 64.0507 390.122 64.04 389.866 64.04C389.535 64.04 389.199 64.136 388.858 64.328C388.527 64.52 388.25 64.8133 388.026 65.208C387.802 65.592 387.69 66.0827 387.69 66.68V71H386.41ZM396.035 71.16C395.278 71.16 394.6 70.9947 394.003 70.664C393.416 70.3333 392.958 69.8587 392.627 69.24C392.296 68.6107 392.131 67.864 392.131 67C392.131 66.136 392.296 65.3947 392.627 64.776C392.958 64.1467 393.411 63.6667 393.987 63.336C394.563 63.0053 395.219 62.84 395.955 62.84C396.702 62.84 397.336 63 397.859 63.32C398.392 63.64 398.798 64.0773 399.075 64.632C399.352 65.176 399.491 65.7893 399.491 66.472C399.491 66.6533 399.486 66.8187 399.475 66.968C399.464 67.1173 399.448 67.2507 399.427 67.368H392.963V66.232H398.867L398.211 66.36C398.211 65.592 397.998 65 397.571 64.584C397.155 64.168 396.606 63.96 395.923 63.96C395.4 63.96 394.947 64.0827 394.563 64.328C394.19 64.5627 393.896 64.9093 393.683 65.368C393.48 65.816 393.379 66.36 393.379 67C393.379 67.6293 393.486 68.1733 393.699 68.632C393.912 69.0907 394.211 69.4427 394.595 69.688C394.99 69.9227 395.459 70.04 396.003 70.04C396.59 70.04 397.064 69.928 397.427 69.704C397.8 69.48 398.099 69.176 398.323 68.792L399.331 69.384C399.128 69.7467 398.867 70.0613 398.547 70.328C398.238 70.5947 397.87 70.8027 397.443 70.952C397.027 71.0907 396.558 71.16 396.035 71.16ZM401.926 71V63H403.046L403.126 64.248C403.414 63.7573 403.787 63.4 404.246 63.176C404.715 62.952 405.195 62.84 405.686 62.84C406.251 62.84 406.784 62.968 407.286 63.224C407.787 63.48 408.171 63.8747 408.438 64.408C408.608 64.0453 408.848 63.752 409.158 63.528C409.467 63.2933 409.803 63.1227 410.166 63.016C410.539 62.8987 410.891 62.84 411.222 62.84C411.734 62.84 412.219 62.9467 412.678 63.16C413.147 63.3733 413.531 63.704 413.83 64.152C414.128 64.6 414.278 65.176 414.278 65.88V71H412.998V66.008C412.998 65.2827 412.816 64.76 412.454 64.44C412.091 64.12 411.643 63.96 411.11 63.96C410.694 63.96 410.304 64.0613 409.942 64.264C409.579 64.4667 409.286 64.7653 409.062 65.16C408.848 65.5547 408.742 66.04 408.742 66.616V71H407.462V66.008C407.462 65.2827 407.28 64.76 406.918 64.44C406.555 64.12 406.107 63.96 405.574 63.96C405.222 63.96 404.859 64.056 404.486 64.248C404.123 64.4293 403.819 64.7227 403.574 65.128C403.328 65.5333 403.206 66.0667 403.206 66.728V71H401.926ZM423.269 61.464C422.981 61.464 422.746 61.3787 422.565 61.208C422.394 61.0267 422.309 60.792 422.309 60.504C422.309 60.216 422.394 59.9867 422.565 59.816C422.746 59.6347 422.981 59.544 423.269 59.544C423.557 59.544 423.786 59.6347 423.957 59.816C424.138 59.9867 424.229 60.216 424.229 60.504C424.229 60.792 424.138 61.0267 423.957 61.208C423.786 61.3787 423.557 61.464 423.269 61.464ZM423.909 63V71H422.629V63H423.909ZM426.879 74.36V63H427.999L428.111 64.952L427.935 64.728C428.073 64.3547 428.281 64.0293 428.559 63.752C428.836 63.464 429.172 63.24 429.567 63.08C429.961 62.92 430.388 62.84 430.847 62.84C431.497 62.84 432.095 63.0053 432.639 63.336C433.193 63.6667 433.636 64.1413 433.967 64.76C434.297 65.3787 434.463 66.1253 434.463 67C434.463 67.864 434.292 68.6107 433.951 69.24C433.62 69.8587 433.177 70.3333 432.623 70.664C432.068 70.9947 431.46 71.16 430.799 71.16C430.137 71.16 429.556 71 429.055 70.68C428.564 70.3493 428.212 69.9333 427.999 69.432L428.159 69.192V74.36H426.879ZM430.671 70.04C431.46 70.04 432.073 69.7627 432.511 69.208C432.959 68.6533 433.183 67.9173 433.183 67C433.183 66.0827 432.964 65.3467 432.527 64.792C432.1 64.2373 431.497 63.96 430.719 63.96C430.207 63.96 429.759 64.088 429.375 64.344C428.991 64.5893 428.692 64.9413 428.479 65.4C428.265 65.848 428.159 66.3813 428.159 67C428.159 67.608 428.26 68.1413 428.463 68.6C428.676 69.0587 428.969 69.416 429.343 69.672C429.727 69.9173 430.169 70.04 430.671 70.04ZM439.79 71.16C439.011 71.16 438.291 70.9947 437.63 70.664C436.979 70.3333 436.478 69.864 436.126 69.256L437.214 68.472C437.449 68.9627 437.79 69.3467 438.238 69.624C438.697 69.9013 439.246 70.04 439.886 70.04C440.451 70.04 440.894 69.9333 441.214 69.72C441.534 69.496 441.694 69.208 441.694 68.856C441.694 68.632 441.619 68.4293 441.47 68.248C441.331 68.056 441.059 67.9173 440.654 67.832L438.734 67.432C437.955 67.272 437.395 67.0053 437.054 66.632C436.723 66.2587 436.558 65.7947 436.558 65.24C436.558 64.8027 436.681 64.4027 436.926 64.04C437.182 63.6773 437.539 63.3893 437.998 63.176C438.467 62.952 439.017 62.84 439.646 62.84C440.435 62.84 441.102 62.9947 441.646 63.304C442.19 63.6133 442.595 64.0507 442.862 64.616L441.79 65.32C441.609 64.8507 441.315 64.5093 440.91 64.296C440.505 64.072 440.083 63.96 439.646 63.96C439.262 63.96 438.931 64.0133 438.654 64.12C438.387 64.2267 438.179 64.376 438.03 64.568C437.891 64.7493 437.822 64.9573 437.822 65.192C437.822 65.4267 437.902 65.6453 438.062 65.848C438.222 66.04 438.521 66.1787 438.958 66.264L440.958 66.68C441.705 66.8293 442.227 67.0747 442.526 67.416C442.825 67.7573 442.974 68.1733 442.974 68.664C442.974 69.1653 442.841 69.608 442.574 69.992C442.307 70.3653 441.934 70.6533 441.454 70.856C440.974 71.0587 440.419 71.16 439.79 71.16ZM448.243 71.16C447.731 71.16 447.246 71.064 446.787 70.872C446.339 70.68 445.971 70.3707 445.683 69.944C445.406 69.5067 445.267 68.9413 445.267 68.248V63H446.547V67.912C446.547 68.7227 446.723 69.2827 447.075 69.592C447.427 69.8907 447.923 70.04 448.563 70.04C448.862 70.04 449.155 69.992 449.443 69.896C449.731 69.7893 449.987 69.6293 450.211 69.416C450.446 69.192 450.627 68.9093 450.755 68.568C450.894 68.2267 450.963 67.8213 450.963 67.352V63H452.243V71H451.123L451.043 69.784C450.766 70.264 450.387 70.616 449.907 70.84C449.438 71.0533 448.883 71.16 448.243 71.16ZM370.608 90.16C369.947 90.16 369.339 89.9947 368.784 89.664C368.229 89.3333 367.787 88.8587 367.456 88.24C367.125 87.6107 366.96 86.864 366.96 86C366.96 85.1147 367.136 84.3627 367.488 83.744C367.84 83.1253 368.304 82.656 368.88 82.336C369.456 82.0053 370.075 81.84 370.736 81.84C371.397 81.84 371.968 82.0107 372.448 82.352C372.939 82.6933 373.264 83.1467 373.424 83.712L373.264 83.824V78.32H374.544V90H373.424L373.312 88.064L373.488 87.968C373.413 88.4373 373.232 88.8373 372.944 89.168C372.667 89.488 372.32 89.7333 371.904 89.904C371.499 90.0747 371.067 90.16 370.608 90.16ZM370.736 89.04C371.248 89.04 371.691 88.912 372.064 88.656C372.448 88.4 372.741 88.0373 372.944 87.568C373.157 87.088 373.264 86.528 373.264 85.888C373.264 85.28 373.157 84.7573 372.944 84.32C372.741 83.8827 372.453 83.5467 372.08 83.312C371.717 83.0773 371.291 82.96 370.8 82.96C369.989 82.96 369.36 83.2373 368.912 83.792C368.464 84.3467 368.24 85.0827 368.24 86C368.24 86.9173 368.459 87.6533 368.896 88.208C369.333 88.7627 369.947 89.04 370.736 89.04ZM380.831 81.84C381.589 81.84 382.255 82.0053 382.831 82.336C383.418 82.6667 383.877 83.1467 384.207 83.776C384.538 84.3947 384.703 85.136 384.703 86C384.703 86.864 384.538 87.6107 384.207 88.24C383.877 88.8587 383.418 89.3333 382.831 89.664C382.255 89.9947 381.589 90.16 380.831 90.16C380.085 90.16 379.418 89.9947 378.831 89.664C378.245 89.3333 377.786 88.8587 377.455 88.24C377.125 87.6107 376.959 86.864 376.959 86C376.959 85.136 377.125 84.3947 377.455 83.776C377.786 83.1467 378.245 82.6667 378.831 82.336C379.418 82.0053 380.085 81.84 380.831 81.84ZM380.831 82.944C380.287 82.944 379.823 83.0667 379.439 83.312C379.055 83.5573 378.757 83.9093 378.543 84.368C378.341 84.816 378.239 85.36 378.239 86C378.239 86.6293 378.341 87.1733 378.543 87.632C378.757 88.0907 379.055 88.4427 379.439 88.688C379.823 88.9333 380.287 89.056 380.831 89.056C381.375 89.056 381.839 88.9333 382.223 88.688C382.607 88.4427 382.901 88.0907 383.103 87.632C383.317 87.1733 383.423 86.6293 383.423 86C383.423 85.36 383.317 84.816 383.103 84.368C382.901 83.9093 382.607 83.5573 382.223 83.312C381.839 83.0667 381.375 82.944 380.831 82.944ZM388.329 78.32V87.968C388.329 88.3733 388.404 88.656 388.553 88.816C388.702 88.9653 388.942 89.04 389.273 89.04C389.486 89.04 389.662 89.024 389.801 88.992C389.94 88.96 390.126 88.9013 390.361 88.816L390.153 89.936C389.982 90.0107 389.796 90.064 389.593 90.096C389.39 90.1387 389.182 90.16 388.969 90.16C388.318 90.16 387.833 89.984 387.513 89.632C387.204 89.28 387.049 88.7413 387.049 88.016V78.32H388.329ZM395.316 81.84C396.073 81.84 396.74 82.0053 397.316 82.336C397.902 82.6667 398.361 83.1467 398.692 83.776C399.022 84.3947 399.188 85.136 399.188 86C399.188 86.864 399.022 87.6107 398.692 88.24C398.361 88.8587 397.902 89.3333 397.316 89.664C396.74 89.9947 396.073 90.16 395.316 90.16C394.569 90.16 393.902 89.9947 393.316 89.664C392.729 89.3333 392.27 88.8587 391.94 88.24C391.609 87.6107 391.444 86.864 391.444 86C391.444 85.136 391.609 84.3947 391.94 83.776C392.27 83.1467 392.729 82.6667 393.316 82.336C393.902 82.0053 394.569 81.84 395.316 81.84ZM395.316 82.944C394.772 82.944 394.308 83.0667 393.924 83.312C393.54 83.5573 393.241 83.9093 393.028 84.368C392.825 84.816 392.724 85.36 392.724 86C392.724 86.6293 392.825 87.1733 393.028 87.632C393.241 88.0907 393.54 88.4427 393.924 88.688C394.308 88.9333 394.772 89.056 395.316 89.056C395.86 89.056 396.324 88.9333 396.708 88.688C397.092 88.4427 397.385 88.0907 397.588 87.632C397.801 87.1733 397.908 86.6293 397.908 86C397.908 85.36 397.801 84.816 397.588 84.368C397.385 83.9093 397.092 83.5573 396.708 83.312C396.324 83.0667 395.86 82.944 395.316 82.944ZM401.597 90V82H402.637L402.813 83.312C403.037 82.8213 403.363 82.4533 403.789 82.208C404.227 81.9627 404.755 81.84 405.373 81.84C405.512 81.84 405.661 81.8507 405.821 81.872C405.992 81.8933 406.136 81.936 406.253 82L406.029 83.168C405.912 83.1253 405.784 83.0933 405.645 83.072C405.507 83.0507 405.309 83.04 405.053 83.04C404.723 83.04 404.387 83.136 404.045 83.328C403.715 83.52 403.437 83.8133 403.213 84.208C402.989 84.592 402.877 85.0827 402.877 85.68V90H401.597ZM417.879 84.832C417.879 84.2347 417.719 83.776 417.399 83.456C417.079 83.1253 416.625 82.96 416.039 82.96C415.484 82.96 415.015 83.0827 414.631 83.328C414.247 83.5627 413.964 83.9467 413.783 84.48L412.743 83.84C412.956 83.2427 413.351 82.7627 413.927 82.4C414.503 82.0267 415.217 81.84 416.071 81.84C416.647 81.84 417.169 81.9413 417.639 82.144C418.108 82.336 418.476 82.6347 418.743 83.04C419.02 83.4347 419.159 83.9467 419.159 84.576V88.448C419.159 88.832 419.361 89.024 419.767 89.024C419.969 89.024 420.167 88.9973 420.359 88.944L420.295 89.952C420.081 90.0587 419.804 90.112 419.463 90.112C419.153 90.112 418.876 90.0533 418.631 89.936C418.385 89.8187 418.193 89.6427 418.055 89.408C417.916 89.1627 417.847 88.8587 417.847 88.496V88.336L418.167 88.384C418.039 88.8 417.82 89.1413 417.511 89.408C417.201 89.664 416.855 89.856 416.471 89.984C416.087 90.1013 415.708 90.16 415.335 90.16C414.865 90.16 414.428 90.08 414.023 89.92C413.617 89.76 413.292 89.52 413.047 89.2C412.812 88.8693 412.695 88.464 412.695 87.984C412.695 87.3867 412.892 86.896 413.287 86.512C413.692 86.1173 414.252 85.8507 414.967 85.712L418.135 85.088V86.144L415.559 86.672C415.036 86.7787 414.647 86.928 414.391 87.12C414.135 87.312 414.007 87.5787 414.007 87.92C414.007 88.2507 414.135 88.5227 414.391 88.736C414.657 88.9387 415.031 89.04 415.511 89.04C415.82 89.04 416.113 89.0027 416.391 88.928C416.679 88.8427 416.935 88.72 417.159 88.56C417.383 88.3893 417.559 88.1813 417.687 87.936C417.815 87.68 417.879 87.3813 417.879 87.04V84.832ZM422.269 90V82H423.389L423.469 83.248C423.757 82.7573 424.131 82.4 424.589 82.176C425.059 81.952 425.539 81.84 426.029 81.84C426.595 81.84 427.128 81.968 427.629 82.224C428.131 82.48 428.515 82.8747 428.781 83.408C428.952 83.0453 429.192 82.752 429.501 82.528C429.811 82.2933 430.147 82.1227 430.509 82.016C430.883 81.8987 431.235 81.84 431.565 81.84C432.077 81.84 432.563 81.9467 433.021 82.16C433.491 82.3733 433.875 82.704 434.173 83.152C434.472 83.6 434.621 84.176 434.621 84.88V90H433.341V85.008C433.341 84.2827 433.16 83.76 432.797 83.44C432.435 83.12 431.987 82.96 431.453 82.96C431.037 82.96 430.648 83.0613 430.285 83.264C429.923 83.4667 429.629 83.7653 429.405 84.16C429.192 84.5547 429.085 85.04 429.085 85.616V90H427.805V85.008C427.805 84.2827 427.624 83.76 427.261 83.44C426.899 83.12 426.451 82.96 425.917 82.96C425.565 82.96 425.203 83.056 424.829 83.248C424.467 83.4293 424.163 83.7227 423.917 84.128C423.672 84.5333 423.549 85.0667 423.549 85.728V90H422.269ZM440.863 90.16C440.106 90.16 439.429 89.9947 438.831 89.664C438.245 89.3333 437.786 88.8587 437.455 88.24C437.125 87.6107 436.959 86.864 436.959 86C436.959 85.136 437.125 84.3947 437.455 83.776C437.786 83.1467 438.239 82.6667 438.815 82.336C439.391 82.0053 440.047 81.84 440.783 81.84C441.53 81.84 442.165 82 442.687 82.32C443.221 82.64 443.626 83.0773 443.903 83.632C444.181 84.176 444.319 84.7893 444.319 85.472C444.319 85.6533 444.314 85.8187 444.303 85.968C444.293 86.1173 444.277 86.2507 444.255 86.368H437.791V85.232H443.695L443.039 85.36C443.039 84.592 442.826 84 442.399 83.584C441.983 83.168 441.434 82.96 440.751 82.96C440.229 82.96 439.775 83.0827 439.391 83.328C439.018 83.5627 438.725 83.9093 438.511 84.368C438.309 84.816 438.207 85.36 438.207 86C438.207 86.6293 438.314 87.1733 438.527 87.632C438.741 88.0907 439.039 88.4427 439.423 88.688C439.818 88.9227 440.287 89.04 440.831 89.04C441.418 89.04 441.893 88.928 442.255 88.704C442.629 88.48 442.927 88.176 443.151 87.792L444.159 88.384C443.957 88.7467 443.695 89.0613 443.375 89.328C443.066 89.5947 442.698 89.8027 442.271 89.952C441.855 90.0907 441.386 90.16 440.863 90.16ZM448.407 79.728V87.792C448.407 88.1867 448.519 88.48 448.743 88.672C448.967 88.864 449.255 88.96 449.607 88.96C449.917 88.96 450.183 88.9067 450.407 88.8C450.631 88.6933 450.834 88.5493 451.015 88.368L451.463 89.44C451.218 89.664 450.925 89.84 450.583 89.968C450.253 90.096 449.869 90.16 449.431 90.16C449.026 90.16 448.647 90.0907 448.295 89.952C447.943 89.8027 447.661 89.5733 447.447 89.264C447.245 88.944 447.138 88.528 447.127 88.016V80.08L448.407 79.728ZM451.319 82V83.104H445.527V82H451.319Z" fill="#111111"/>
<g clip-path="url(#clip3_846_626)">
<path d="M548.99 26C543.47 26 539 30.48 539 36C539 41.52 543.47 46 548.99 46C554.52 46 559 41.52 559 36C559 30.48 554.52 26 548.99 26ZM555.92 32H552.97C552.65 30.75 552.19 29.55 551.59 28.44C553.43 29.07 554.96 30.35 555.92 32ZM549 28.04C549.83 29.24 550.48 30.57 550.91 32H547.09C547.52 30.57 548.17 29.24 549 28.04ZM541.26 38C541.1 37.36 541 36.69 541 36C541 35.31 541.1 34.64 541.26 34H544.64C544.56 34.66 544.5 35.32 544.5 36C544.5 36.68 544.56 37.34 544.64 38H541.26ZM542.08 40H545.03C545.35 41.25 545.81 42.45 546.41 43.56C544.57 42.93 543.04 41.66 542.08 40ZM545.03 32H542.08C543.04 30.34 544.57 29.07 546.41 28.44C545.81 29.55 545.35 30.75 545.03 32ZM549 43.96C548.17 42.76 547.52 41.43 547.09 40H550.91C550.48 41.43 549.83 42.76 549 43.96ZM551.34 38H546.66C546.57 37.34 546.5 36.68 546.5 36C546.5 35.32 546.57 34.65 546.66 34H551.34C551.43 34.65 551.5 35.32 551.5 36C551.5 36.68 551.43 37.34 551.34 38ZM551.59 43.56C552.19 42.45 552.65 41.25 552.97 40H555.92C554.96 41.65 553.43 42.93 551.59 43.56ZM553.36 38C553.44 37.34 553.5 36.68 553.5 36C553.5 35.32 553.44 34.66 553.36 34H556.74C556.9 34.64 557 35.31 557 36C557 36.69 556.9 37.36 556.74 38H553.36Z" fill="#111111"/>
</g>
<path d="M540.008 69.8H546.056V71H538.728V60.44H540.008V69.8ZM551.128 62.84C551.885 62.84 552.552 63.0053 553.128 63.336C553.715 63.6667 554.173 64.1467 554.504 64.776C554.835 65.3947 555 66.136 555 67C555 67.864 554.835 68.6107 554.504 69.24C554.173 69.8587 553.715 70.3333 553.128 70.664C552.552 70.9947 551.885 71.16 551.128 71.16C550.381 71.16 549.715 70.9947 549.128 70.664C548.541 70.3333 548.083 69.8587 547.752 69.24C547.421 68.6107 547.256 67.864 547.256 67C547.256 66.136 547.421 65.3947 547.752 64.776C548.083 64.1467 548.541 63.6667 549.128 63.336C549.715 63.0053 550.381 62.84 551.128 62.84ZM551.128 63.944C550.584 63.944 550.12 64.0667 549.736 64.312C549.352 64.5573 549.053 64.9093 548.84 65.368C548.637 65.816 548.536 66.36 548.536 67C548.536 67.6293 548.637 68.1733 548.84 68.632C549.053 69.0907 549.352 69.4427 549.736 69.688C550.12 69.9333 550.584 70.056 551.128 70.056C551.672 70.056 552.136 69.9333 552.52 69.688C552.904 69.4427 553.197 69.0907 553.4 68.632C553.613 68.1733 553.72 67.6293 553.72 67C553.72 66.36 553.613 65.816 553.4 65.368C553.197 64.9093 552.904 64.5573 552.52 64.312C552.136 64.0667 551.672 63.944 551.128 63.944ZM557.41 71V63H558.45L558.626 64.312C558.85 63.8213 559.175 63.4533 559.602 63.208C560.039 62.9627 560.567 62.84 561.186 62.84C561.325 62.84 561.474 62.8507 561.634 62.872C561.805 62.8933 561.949 62.936 562.066 63L561.842 64.168C561.725 64.1253 561.597 64.0933 561.458 64.072C561.319 64.0507 561.122 64.04 560.866 64.04C560.535 64.04 560.199 64.136 559.858 64.328C559.527 64.52 559.25 64.8133 559.026 65.208C558.802 65.592 558.69 66.0827 558.69 66.68V71H557.41ZM567.035 71.16C566.278 71.16 565.6 70.9947 565.003 70.664C564.416 70.3333 563.958 69.8587 563.627 69.24C563.296 68.6107 563.131 67.864 563.131 67C563.131 66.136 563.296 65.3947 563.627 64.776C563.958 64.1467 564.411 63.6667 564.987 63.336C565.563 63.0053 566.219 62.84 566.955 62.84C567.702 62.84 568.336 63 568.859 63.32C569.392 63.64 569.798 64.0773 570.075 64.632C570.352 65.176 570.491 65.7893 570.491 66.472C570.491 66.6533 570.486 66.8187 570.475 66.968C570.464 67.1173 570.448 67.2507 570.427 67.368H563.963V66.232H569.867L569.211 66.36C569.211 65.592 568.998 65 568.571 64.584C568.155 64.168 567.606 63.96 566.923 63.96C566.4 63.96 565.947 64.0827 565.563 64.328C565.19 64.5627 564.896 64.9093 564.683 65.368C564.48 65.816 564.379 66.36 564.379 67C564.379 67.6293 564.486 68.1733 564.699 68.632C564.912 69.0907 565.211 69.4427 565.595 69.688C565.99 69.9227 566.459 70.04 567.003 70.04C567.59 70.04 568.064 69.928 568.427 69.704C568.8 69.48 569.099 69.176 569.323 68.792L570.331 69.384C570.128 69.7467 569.867 70.0613 569.547 70.328C569.238 70.5947 568.87 70.8027 568.443 70.952C568.027 71.0907 567.558 71.16 567.035 71.16ZM572.926 71V63H574.046L574.126 64.248C574.414 63.7573 574.787 63.4 575.246 63.176C575.715 62.952 576.195 62.84 576.686 62.84C577.251 62.84 577.784 62.968 578.286 63.224C578.787 63.48 579.171 63.8747 579.438 64.408C579.608 64.0453 579.848 63.752 580.158 63.528C580.467 63.2933 580.803 63.1227 581.166 63.016C581.539 62.8987 581.891 62.84 582.222 62.84C582.734 62.84 583.219 62.9467 583.678 63.16C584.147 63.3733 584.531 63.704 584.83 64.152C585.128 64.6 585.278 65.176 585.278 65.88V71H583.998V66.008C583.998 65.2827 583.816 64.76 583.454 64.44C583.091 64.12 582.643 63.96 582.11 63.96C581.694 63.96 581.304 64.0613 580.942 64.264C580.579 64.4667 580.286 64.7653 580.062 65.16C579.848 65.5547 579.742 66.04 579.742 66.616V71H578.462V66.008C578.462 65.2827 578.28 64.76 577.918 64.44C577.555 64.12 577.107 63.96 576.574 63.96C576.222 63.96 575.859 64.056 575.486 64.248C575.123 64.4293 574.819 64.7227 574.574 65.128C574.328 65.5333 574.206 66.0667 574.206 66.728V71H572.926ZM594.269 61.464C593.981 61.464 593.746 61.3787 593.565 61.208C593.394 61.0267 593.309 60.792 593.309 60.504C593.309 60.216 593.394 59.9867 593.565 59.816C593.746 59.6347 593.981 59.544 594.269 59.544C594.557 59.544 594.786 59.6347 594.957 59.816C595.138 59.9867 595.229 60.216 595.229 60.504C595.229 60.792 595.138 61.0267 594.957 61.208C594.786 61.3787 594.557 61.464 594.269 61.464ZM594.909 63V71H593.629V63H594.909ZM597.879 74.36V63H598.999L599.111 64.952L598.935 64.728C599.073 64.3547 599.281 64.0293 599.559 63.752C599.836 63.464 600.172 63.24 600.567 63.08C600.961 62.92 601.388 62.84 601.847 62.84C602.497 62.84 603.095 63.0053 603.639 63.336C604.193 63.6667 604.636 64.1413 604.967 64.76C605.297 65.3787 605.463 66.1253 605.463 67C605.463 67.864 605.292 68.6107 604.951 69.24C604.62 69.8587 604.177 70.3333 603.623 70.664C603.068 70.9947 602.46 71.16 601.799 71.16C601.137 71.16 600.556 71 600.055 70.68C599.564 70.3493 599.212 69.9333 598.999 69.432L599.159 69.192V74.36H597.879ZM601.671 70.04C602.46 70.04 603.073 69.7627 603.511 69.208C603.959 68.6533 604.183 67.9173 604.183 67C604.183 66.0827 603.964 65.3467 603.527 64.792C603.1 64.2373 602.497 63.96 601.719 63.96C601.207 63.96 600.759 64.088 600.375 64.344C599.991 64.5893 599.692 64.9413 599.479 65.4C599.265 65.848 599.159 66.3813 599.159 67C599.159 67.608 599.26 68.1413 599.463 68.6C599.676 69.0587 599.969 69.416 600.343 69.672C600.727 69.9173 601.169 70.04 601.671 70.04ZM610.79 71.16C610.011 71.16 609.291 70.9947 608.63 70.664C607.979 70.3333 607.478 69.864 607.126 69.256L608.214 68.472C608.449 68.9627 608.79 69.3467 609.238 69.624C609.697 69.9013 610.246 70.04 610.886 70.04C611.451 70.04 611.894 69.9333 612.214 69.72C612.534 69.496 612.694 69.208 612.694 68.856C612.694 68.632 612.619 68.4293 612.47 68.248C612.331 68.056 612.059 67.9173 611.654 67.832L609.734 67.432C608.955 67.272 608.395 67.0053 608.054 66.632C607.723 66.2587 607.558 65.7947 607.558 65.24C607.558 64.8027 607.681 64.4027 607.926 64.04C608.182 63.6773 608.539 63.3893 608.998 63.176C609.467 62.952 610.017 62.84 610.646 62.84C611.435 62.84 612.102 62.9947 612.646 63.304C613.19 63.6133 613.595 64.0507 613.862 64.616L612.79 65.32C612.609 64.8507 612.315 64.5093 611.91 64.296C611.505 64.072 611.083 63.96 610.646 63.96C610.262 63.96 609.931 64.0133 609.654 64.12C609.387 64.2267 609.179 64.376 609.03 64.568C608.891 64.7493 608.822 64.9573 608.822 65.192C608.822 65.4267 608.902 65.6453 609.062 65.848C609.222 66.04 609.521 66.1787 609.958 66.264L611.958 66.68C612.705 66.8293 613.227 67.0747 613.526 67.416C613.825 67.7573 613.974 68.1733 613.974 68.664C613.974 69.1653 613.841 69.608 613.574 69.992C613.307 70.3653 612.934 70.6533 612.454 70.856C611.974 71.0587 611.419 71.16 610.79 71.16ZM619.243 71.16C618.731 71.16 618.246 71.064 617.787 70.872C617.339 70.68 616.971 70.3707 616.683 69.944C616.406 69.5067 616.267 68.9413 616.267 68.248V63H617.547V67.912C617.547 68.7227 617.723 69.2827 618.075 69.592C618.427 69.8907 618.923 70.04 619.563 70.04C619.862 70.04 620.155 69.992 620.443 69.896C620.731 69.7893 620.987 69.6293 621.211 69.416C621.446 69.192 621.627 68.9093 621.755 68.568C621.894 68.2267 621.963 67.8213 621.963 67.352V63H623.243V71H622.123L622.043 69.784C621.766 70.264 621.387 70.616 620.907 70.84C620.438 71.0533 619.883 71.16 619.243 71.16ZM541.608 90.16C540.947 90.16 540.339 89.9947 539.784 89.664C539.229 89.3333 538.787 88.8587 538.456 88.24C538.125 87.6107 537.96 86.864 537.96 86C537.96 85.1147 538.136 84.3627 538.488 83.744C538.84 83.1253 539.304 82.656 539.88 82.336C540.456 82.0053 541.075 81.84 541.736 81.84C542.397 81.84 542.968 82.0107 543.448 82.352C543.939 82.6933 544.264 83.1467 544.424 83.712L544.264 83.824V78.32H545.544V90H544.424L544.312 88.064L544.488 87.968C544.413 88.4373 544.232 88.8373 543.944 89.168C543.667 89.488 543.32 89.7333 542.904 89.904C542.499 90.0747 542.067 90.16 541.608 90.16ZM541.736 89.04C542.248 89.04 542.691 88.912 543.064 88.656C543.448 88.4 543.741 88.0373 543.944 87.568C544.157 87.088 544.264 86.528 544.264 85.888C544.264 85.28 544.157 84.7573 543.944 84.32C543.741 83.8827 543.453 83.5467 543.08 83.312C542.717 83.0773 542.291 82.96 541.8 82.96C540.989 82.96 540.36 83.2373 539.912 83.792C539.464 84.3467 539.24 85.0827 539.24 86C539.24 86.9173 539.459 87.6533 539.896 88.208C540.333 88.7627 540.947 89.04 541.736 89.04ZM551.831 81.84C552.589 81.84 553.255 82.0053 553.831 82.336C554.418 82.6667 554.877 83.1467 555.207 83.776C555.538 84.3947 555.703 85.136 555.703 86C555.703 86.864 555.538 87.6107 555.207 88.24C554.877 88.8587 554.418 89.3333 553.831 89.664C553.255 89.9947 552.589 90.16 551.831 90.16C551.085 90.16 550.418 89.9947 549.831 89.664C549.245 89.3333 548.786 88.8587 548.455 88.24C548.125 87.6107 547.959 86.864 547.959 86C547.959 85.136 548.125 84.3947 548.455 83.776C548.786 83.1467 549.245 82.6667 549.831 82.336C550.418 82.0053 551.085 81.84 551.831 81.84ZM551.831 82.944C551.287 82.944 550.823 83.0667 550.439 83.312C550.055 83.5573 549.757 83.9093 549.543 84.368C549.341 84.816 549.239 85.36 549.239 86C549.239 86.6293 549.341 87.1733 549.543 87.632C549.757 88.0907 550.055 88.4427 550.439 88.688C550.823 88.9333 551.287 89.056 551.831 89.056C552.375 89.056 552.839 88.9333 553.223 88.688C553.607 88.4427 553.901 88.0907 554.103 87.632C554.317 87.1733 554.423 86.6293 554.423 86C554.423 85.36 554.317 84.816 554.103 84.368C553.901 83.9093 553.607 83.5573 553.223 83.312C552.839 83.0667 552.375 82.944 551.831 82.944ZM559.329 78.32V87.968C559.329 88.3733 559.404 88.656 559.553 88.816C559.702 88.9653 559.942 89.04 560.273 89.04C560.486 89.04 560.662 89.024 560.801 88.992C560.94 88.96 561.126 88.9013 561.361 88.816L561.153 89.936C560.982 90.0107 560.796 90.064 560.593 90.096C560.39 90.1387 560.182 90.16 559.969 90.16C559.318 90.16 558.833 89.984 558.513 89.632C558.204 89.28 558.049 88.7413 558.049 88.016V78.32H559.329ZM566.316 81.84C567.073 81.84 567.74 82.0053 568.316 82.336C568.902 82.6667 569.361 83.1467 569.692 83.776C570.022 84.3947 570.188 85.136 570.188 86C570.188 86.864 570.022 87.6107 569.692 88.24C569.361 88.8587 568.902 89.3333 568.316 89.664C567.74 89.9947 567.073 90.16 566.316 90.16C565.569 90.16 564.902 89.9947 564.316 89.664C563.729 89.3333 563.27 88.8587 562.94 88.24C562.609 87.6107 562.444 86.864 562.444 86C562.444 85.136 562.609 84.3947 562.94 83.776C563.27 83.1467 563.729 82.6667 564.316 82.336C564.902 82.0053 565.569 81.84 566.316 81.84ZM566.316 82.944C565.772 82.944 565.308 83.0667 564.924 83.312C564.54 83.5573 564.241 83.9093 564.028 84.368C563.825 84.816 563.724 85.36 563.724 86C563.724 86.6293 563.825 87.1733 564.028 87.632C564.241 88.0907 564.54 88.4427 564.924 88.688C565.308 88.9333 565.772 89.056 566.316 89.056C566.86 89.056 567.324 88.9333 567.708 88.688C568.092 88.4427 568.385 88.0907 568.588 87.632C568.801 87.1733 568.908 86.6293 568.908 86C568.908 85.36 568.801 84.816 568.588 84.368C568.385 83.9093 568.092 83.5573 567.708 83.312C567.324 83.0667 566.86 82.944 566.316 82.944ZM572.597 90V82H573.637L573.813 83.312C574.037 82.8213 574.363 82.4533 574.789 82.208C575.227 81.9627 575.755 81.84 576.373 81.84C576.512 81.84 576.661 81.8507 576.821 81.872C576.992 81.8933 577.136 81.936 577.253 82L577.029 83.168C576.912 83.1253 576.784 83.0933 576.645 83.072C576.507 83.0507 576.309 83.04 576.053 83.04C575.723 83.04 575.387 83.136 575.045 83.328C574.715 83.52 574.437 83.8133 574.213 84.208C573.989 84.592 573.877 85.0827 573.877 85.68V90H572.597ZM588.879 84.832C588.879 84.2347 588.719 83.776 588.399 83.456C588.079 83.1253 587.625 82.96 587.039 82.96C586.484 82.96 586.015 83.0827 585.631 83.328C585.247 83.5627 584.964 83.9467 584.783 84.48L583.743 83.84C583.956 83.2427 584.351 82.7627 584.927 82.4C585.503 82.0267 586.217 81.84 587.071 81.84C587.647 81.84 588.169 81.9413 588.639 82.144C589.108 82.336 589.476 82.6347 589.743 83.04C590.02 83.4347 590.159 83.9467 590.159 84.576V88.448C590.159 88.832 590.361 89.024 590.767 89.024C590.969 89.024 591.167 88.9973 591.359 88.944L591.295 89.952C591.081 90.0587 590.804 90.112 590.463 90.112C590.153 90.112 589.876 90.0533 589.631 89.936C589.385 89.8187 589.193 89.6427 589.055 89.408C588.916 89.1627 588.847 88.8587 588.847 88.496V88.336L589.167 88.384C589.039 88.8 588.82 89.1413 588.511 89.408C588.201 89.664 587.855 89.856 587.471 89.984C587.087 90.1013 586.708 90.16 586.335 90.16C585.865 90.16 585.428 90.08 585.023 89.92C584.617 89.76 584.292 89.52 584.047 89.2C583.812 88.8693 583.695 88.464 583.695 87.984C583.695 87.3867 583.892 86.896 584.287 86.512C584.692 86.1173 585.252 85.8507 585.967 85.712L589.135 85.088V86.144L586.559 86.672C586.036 86.7787 585.647 86.928 585.391 87.12C585.135 87.312 585.007 87.5787 585.007 87.92C585.007 88.2507 585.135 88.5227 585.391 88.736C585.657 88.9387 586.031 89.04 586.511 89.04C586.82 89.04 587.113 89.0027 587.391 88.928C587.679 88.8427 587.935 88.72 588.159 88.56C588.383 88.3893 588.559 88.1813 588.687 87.936C588.815 87.68 588.879 87.3813 588.879 87.04V84.832ZM593.269 90V82H594.389L594.469 83.248C594.757 82.7573 595.131 82.4 595.589 82.176C596.059 81.952 596.539 81.84 597.029 81.84C597.595 81.84 598.128 81.968 598.629 82.224C599.131 82.48 599.515 82.8747 599.781 83.408C599.952 83.0453 600.192 82.752 600.501 82.528C600.811 82.2933 601.147 82.1227 601.509 82.016C601.883 81.8987 602.235 81.84 602.565 81.84C603.077 81.84 603.563 81.9467 604.021 82.16C604.491 82.3733 604.875 82.704 605.173 83.152C605.472 83.6 605.621 84.176 605.621 84.88V90H604.341V85.008C604.341 84.2827 604.16 83.76 603.797 83.44C603.435 83.12 602.987 82.96 602.453 82.96C602.037 82.96 601.648 83.0613 601.285 83.264C600.923 83.4667 600.629 83.7653 600.405 84.16C600.192 84.5547 600.085 85.04 600.085 85.616V90H598.805V85.008C598.805 84.2827 598.624 83.76 598.261 83.44C597.899 83.12 597.451 82.96 596.917 82.96C596.565 82.96 596.203 83.056 595.829 83.248C595.467 83.4293 595.163 83.7227 594.917 84.128C594.672 84.5333 594.549 85.0667 594.549 85.728V90H593.269ZM611.863 90.16C611.106 90.16 610.429 89.9947 609.831 89.664C609.245 89.3333 608.786 88.8587 608.455 88.24C608.125 87.6107 607.959 86.864 607.959 86C607.959 85.136 608.125 84.3947 608.455 83.776C608.786 83.1467 609.239 82.6667 609.815 82.336C610.391 82.0053 611.047 81.84 611.783 81.84C612.53 81.84 613.165 82 613.687 82.32C614.221 82.64 614.626 83.0773 614.903 83.632C615.181 84.176 615.319 84.7893 615.319 85.472C615.319 85.6533 615.314 85.8187 615.303 85.968C615.293 86.1173 615.277 86.2507 615.255 86.368H608.791V85.232H614.695L614.039 85.36C614.039 84.592 613.826 84 613.399 83.584C612.983 83.168 612.434 82.96 611.751 82.96C611.229 82.96 610.775 83.0827 610.391 83.328C610.018 83.5627 609.725 83.9093 609.511 84.368C609.309 84.816 609.207 85.36 609.207 86C609.207 86.6293 609.314 87.1733 609.527 87.632C609.741 88.0907 610.039 88.4427 610.423 88.688C610.818 88.9227 611.287 89.04 611.831 89.04C612.418 89.04 612.893 88.928 613.255 88.704C613.629 88.48 613.927 88.176 614.151 87.792L615.159 88.384C614.957 88.7467 614.695 89.0613 614.375 89.328C614.066 89.5947 613.698 89.8027 613.271 89.952C612.855 90.0907 612.386 90.16 611.863 90.16ZM619.407 79.728V87.792C619.407 88.1867 619.519 88.48 619.743 88.672C619.967 88.864 620.255 88.96 620.607 88.96C620.917 88.96 621.183 88.9067 621.407 88.8C621.631 88.6933 621.834 88.5493 622.015 88.368L622.463 89.44C622.218 89.664 621.925 89.84 621.583 89.968C621.253 90.096 620.869 90.16 620.431 90.16C620.026 90.16 619.647 90.0907 619.295 89.952C618.943 89.8027 618.661 89.5733 618.447 89.264C618.245 88.944 618.138 88.528 618.127 88.016V80.08L619.407 79.728ZM622.319 82V83.104H616.527V82H622.319Z" fill="#111111"/>
<defs>
<clipPath id="clip0_846_626">
<rect width="24" height="24" fill="white" transform="translate(24 24)"/>
</clipPath>
<clipPath id="clip1_846_626">
<rect width="24" height="24" fill="white" transform="translate(195 24)"/>
</clipPath>
<clipPath id="clip2_846_626">
<rect width="24" height="24" fill="white" transform="translate(366 24)"/>
</clipPath>
<clipPath id="clip3_846_626">
<rect width="24" height="24" fill="white" transform="translate(537 24)"/>
</clipPath>
</defs>
</svg>
